<svg xmlns="http://www.w3.org/2000/svg" viewBox="0 0 172 172" width="100" height="100" fill="#000000">
    <g fill="#000000">
        <path d="M85.42,11.97c-42.97,0-77.87,34.89-77.87,77.87s34.89,77.87,77.87,77.87s77.87-34.89,77.87-77.87S128.39,11.97,85.42,11.97 M85.42,159.9c-41.58,0-75.49-33.91-75.49-75.49s33.91-75.49,75.49-75.49s75.49,33.91,75.49,75.49S126,159.9,85.42,159.9"></path>
        <path d="M57.53,98.88v-2.76c0-13.57,11.26-24.71,25.2-24.71c12.36,0,20.84,8.75,22.96,21.68l.27,1.47c1.71,10.58,8.17,15.51,16.62,15.51c5.58,0,9.71-2.06,13.06-4.41l-3.45-5.52c-2.18,1.97-4.64,3.44-8.29,3.44c-3.65,0-6.06-1.97-6.89-5.83h13.18l-.62,6.76h-18.66v16.43c-2.36,1.03-6.1,1.89-11.09,1.89c-11.87,0-20.6-7.77-22.29-20.24l-.27-1.43c-1.49-9.63-6.4-13.06-14.73-13.06c-5.01,0-8.65,.7-11.52,2.41l3.18,5.88c2.51-1.88,5.58-2.72,9.34-2.72c2.18,0,4.63,.31,5.97,.7v2.87h0Z"></path>
    </g>
</svg>
